<svg width="20" height="20" viewBox="0 0 20 20" fill="none" xmlns="http://www.w3.org/2000/svg">
<path d="M17.0541 14.232C16.9907 14.3377 16.9072 14.4298 16.8083 14.5032C16.7093 14.5766 16.5969 14.6297 16.4774 14.6596C16.3579 14.6895 16.2337 14.6956 16.1118 14.6774C15.99 14.6593 15.8729 14.6173 15.7673 14.5539L10.9376 11.6555V16.875C10.9376 17.1236 10.8389 17.3621 10.6631 17.5379C10.4872 17.7137 10.2488 17.8125 10.0001 17.8125C9.75151 17.8125 9.51305 17.7137 9.33724 17.5379C9.16142 17.3621 9.06265 17.1236 9.06265 16.875V11.6555L4.23296 14.5539C4.12739 14.6173 4.01038 14.6592 3.8886 14.6773C3.76682 14.6955 3.64266 14.6894 3.52322 14.6596C3.40377 14.6297 3.29137 14.5766 3.19244 14.5033C3.09351 14.43 3.00999 14.338 2.94663 14.2324C2.81869 14.0192 2.78068 13.7639 2.84097 13.5227C2.90126 13.2814 3.05491 13.074 3.26812 12.9461L8.17827 10L3.26812 7.05391C3.16255 6.99055 3.07049 6.90703 2.9972 6.8081C2.92391 6.70917 2.87082 6.59677 2.84097 6.47732C2.81112 6.35788 2.80508 6.23372 2.82321 6.11194C2.84134 5.99016 2.88328 5.87315 2.94663 5.76758C3.00999 5.66201 3.09351 5.56995 3.19244 5.49666C3.29137 5.42337 3.40377 5.37028 3.52322 5.34043C3.64266 5.31058 3.76682 5.30454 3.8886 5.32267C4.01038 5.3408 4.12739 5.38274 4.23296 5.44609L9.06265 8.34453V3.125C9.06265 2.87636 9.16142 2.6379 9.33724 2.46209C9.51305 2.28627 9.75151 2.1875 10.0001 2.1875C10.2488 2.1875 10.4872 2.28627 10.6631 2.46209C10.8389 2.6379 10.9376 2.87636 10.9376 3.125V8.34453L15.7673 5.44609C15.8729 5.38274 15.9899 5.3408 16.1117 5.32267C16.2335 5.30454 16.3576 5.31058 16.4771 5.34043C16.5965 5.37028 16.7089 5.42337 16.8079 5.49666C16.9068 5.56995 16.9903 5.66201 17.0537 5.76758C17.117 5.87315 17.159 5.99016 17.1771 6.11194C17.1952 6.23372 17.1892 6.35788 17.1593 6.47732C17.1295 6.59677 17.0764 6.70917 17.0031 6.8081C16.9298 6.90703 16.8378 6.99055 16.7322 7.05391L11.822 10L16.7322 12.9461C16.9454 13.074 17.099 13.2813 17.1594 13.5224C17.2197 13.7636 17.1819 14.0188 17.0541 14.232Z" fill="#404040"/>
</svg>
