<svg width="21" height="21" viewBox="0 0 21 21" fill="none" xmlns="http://www.w3.org/2000/svg">
<path fill-rule="evenodd" clip-rule="evenodd" d="M3.5419 3.5419C3.99752 3.08629 4.73621 3.08629 5.19182 3.5419L10.2002 8.55028L15.2086 3.5419C15.6642 3.08629 16.4029 3.08629 16.8585 3.5419C17.3141 3.99752 17.3141 4.73621 16.8585 5.19182L11.8501 10.2002L16.8585 15.2086C17.3141 15.6642 17.3141 16.4029 16.8585 16.8585C16.4029 17.3141 15.6642 17.3141 15.2086 16.8585L10.2002 11.8501L5.19182 16.8585C4.73621 17.3141 3.99752 17.3141 3.5419 16.8585C3.08629 16.4029 3.08629 15.6642 3.5419 15.2086L8.55028 10.2002L3.5419 5.19182C3.08629 4.73621 3.08629 3.99752 3.5419 3.5419Z" fill="#525252"/>
</svg>
