<svg width="16" height="16" viewBox="0 0 16 16" fill="none" xmlns="http://www.w3.org/2000/svg">
<path fill-rule="evenodd" clip-rule="evenodd" d="M12.3996 8.04303C12.3996 10.5098 10.4169 12.4864 7.99961 12.4864C5.58228 12.4864 3.59961 10.5098 3.59961 8.04303C3.59961 5.57622 5.58228 3.59961 7.99961 3.59961C10.4169 3.59961 12.3996 5.57622 12.3996 8.04303ZM14.3996 8.04303C14.3996 11.6016 11.5342 14.4864 7.99961 14.4864C4.46499 14.4864 1.59961 11.6016 1.59961 8.04303C1.59961 4.48442 4.46499 1.59961 7.99961 1.59961C11.5342 1.59961 14.3996 4.48442 14.3996 8.04303ZM3.49375 13.4458C2.99889 12.9476 2.16092 13.0832 1.84844 13.712C1.40995 14.5944 2.34753 15.527 3.22757 15.0837C3.85004 14.7702 3.98491 13.9403 3.49375 13.4458Z" fill="#737373"/>
</svg>
