<svg width="22" height="22" viewBox="0 0 22 22" fill="none" xmlns="http://www.w3.org/2000/svg">
<path d="M17.5658 8.2325L16.9925 7.65917L17.3925 7.2375C17.4997 7.13028 17.5533 7.01 17.5533 6.87667C17.5533 6.74333 17.4997 6.62306 17.3925 6.51583L15.3033 4.42667C15.1961 4.31944 15.0758 4.26583 14.9425 4.26583C14.8092 4.26583 14.6889 4.31944 14.5817 4.42667L14.16 4.82667L13.5658 4.2325L14.0308 3.74667C14.2753 3.50222 14.575 3.38333 14.93 3.39C15.2844 3.39722 15.5839 3.52306 15.8283 3.7675L18.0517 5.99083C18.2961 6.23528 18.4183 6.53139 18.4183 6.87917C18.4183 7.22694 18.2961 7.52306 18.0517 7.7675L17.5658 8.2325ZM8.7675 17.0517C8.52306 17.2961 8.22694 17.4183 7.87917 17.4183C7.53139 17.4183 7.23528 17.2961 6.99083 17.0517L4.8325 14.8933C4.57694 14.6378 4.44917 14.32 4.44917 13.94C4.44917 13.56 4.57694 13.2425 4.8325 12.9875L5.2325 12.5867L5.82667 13.1808L5.42167 13.5817C5.315 13.6889 5.26167 13.8092 5.26167 13.9425C5.26167 14.0758 5.315 14.1961 5.42167 14.3033L7.51583 16.3975C7.62306 16.5042 7.74333 16.5575 7.87667 16.5575C8.01 16.5575 8.13028 16.5042 8.2375 16.3975L8.6375 15.9925L9.2325 16.5867L8.7675 17.0517ZM16.8783 11.3817L17.8258 10.4342C17.9325 10.3275 17.9858 10.2047 17.9858 10.0658C17.9858 9.92694 17.9325 9.80417 17.8258 9.6975L12.1217 3.99333C12.015 3.88667 11.8922 3.83333 11.7533 3.83333C11.6144 3.83333 11.4917 3.88667 11.385 3.99333L10.4375 4.94083C10.3308 5.0475 10.2775 5.16778 10.2775 5.30167C10.2775 5.435 10.3308 5.555 10.4375 5.66167L16.1575 11.3817C16.2642 11.4883 16.3842 11.5417 16.5175 11.5417C16.6508 11.5417 16.7711 11.4883 16.8783 11.3817ZM11.4133 16.8467L12.3608 15.8942C12.4675 15.7875 12.5208 15.6675 12.5208 15.5342C12.5208 15.4008 12.4675 15.2806 12.3608 15.1733L6.64583 9.45833C6.53917 9.35167 6.41889 9.29833 6.285 9.29833C6.15167 9.29833 6.03167 9.35167 5.925 9.45833L4.9725 10.4058C4.86583 10.5125 4.8125 10.6353 4.8125 10.7742C4.8125 10.9131 4.86583 11.0358 4.9725 11.1425L10.6767 16.8467C10.7833 16.9533 10.9061 17.0067 11.045 17.0067C11.1839 17.0067 11.3067 16.9533 11.4133 16.8467ZM10.8242 12.4517L13.4358 9.845L11.9742 8.38333L9.3675 10.995L10.8242 12.4517ZM11.9925 17.4358C11.7369 17.6914 11.4211 17.8192 11.045 17.8192C10.6689 17.8192 10.3531 17.6914 10.0975 17.4358L4.38333 11.7217C4.12778 11.4661 4 11.1503 4 10.7742C4 10.3981 4.12778 10.0822 4.38333 9.82667L5.33 8.86417C5.58556 8.60861 5.90333 8.48083 6.28333 8.48083C6.66333 8.48083 6.98083 8.60861 7.23583 8.86417L8.7725 10.4008L11.385 7.78833L9.8475 6.25667C9.59194 6.00111 9.46417 5.68278 9.46417 5.30167C9.46417 4.92 9.59194 4.60167 9.8475 4.34667L10.8108 3.38333C11.0664 3.12778 11.3842 3 11.7642 3C12.1442 3 12.4617 3.12778 12.7167 3.38333L18.4358 9.1025C18.6914 9.35806 18.8192 9.67583 18.8192 10.0558C18.8192 10.4358 18.6914 10.7533 18.4358 11.0083L17.4725 11.9717C17.2169 12.2272 16.8986 12.355 16.5175 12.355C16.1364 12.355 15.8181 12.2272 15.5625 11.9717L14.0308 10.4342L11.4183 13.0467L12.955 14.5833C13.2106 14.8389 13.3383 15.1564 13.3383 15.5358C13.3383 15.9153 13.2106 16.2331 12.955 16.4892L11.9925 17.4358Z" fill="#F58C39"/>
</svg>
