<svg width="22" height="22" viewBox="0 0 22 22" fill="none" xmlns="http://www.w3.org/2000/svg">
<path d="M16.6699 9.6558C16.44 9.33913 16.16 9.06467 15.9001 8.79022C15.2302 8.15687 14.4703 7.70297 13.8305 7.03795C12.3407 5.4968 12.0108 2.95283 12.9606 1C12.0108 1.24278 11.1809 1.79169 10.4711 2.39337C7.88155 4.58899 6.86173 8.46299 8.08151 11.7881C8.1215 11.8936 8.16149 11.9992 8.16149 12.1364C8.16149 12.3687 8.01152 12.5798 7.81156 12.6642C7.5816 12.7698 7.34165 12.7064 7.15168 12.5376C7.09459 12.4877 7.04708 12.4268 7.01171 12.3581C5.88191 10.8486 5.70194 8.68466 6.46181 6.9535C4.79211 8.3891 3.88228 10.8169 4.01225 13.1076C4.07224 13.6354 4.13223 14.1632 4.3022 14.6909C4.44218 15.3243 4.71213 15.9576 5.01207 16.5171C6.09187 18.3433 7.96153 19.6522 9.97116 19.9161C12.1108 20.2011 14.4004 19.7894 16.0401 18.2272C17.8697 16.4749 18.5096 13.667 17.5698 11.2603L17.4398 10.9858C17.2298 10.5003 16.6699 9.6558 16.6699 9.6558ZM13.5105 16.306C13.2306 16.5593 12.7707 16.8338 12.4107 16.9393C11.2909 17.3616 10.1711 16.7704 9.51125 16.0738C10.701 15.7782 11.4109 14.8493 11.6209 13.9098C11.7908 13.0653 11.4709 12.3687 11.3409 11.5559C11.2209 10.7747 11.2409 10.1097 11.5109 9.38135C11.7008 9.78247 11.9008 10.1836 12.1408 10.5003C12.9106 11.5559 14.1204 12.0203 14.3804 13.4559C14.4203 13.6037 14.4403 13.7515 14.4403 13.9098C14.4703 14.7754 14.1104 15.7254 13.5105 16.306Z" fill="#737373"/>
</svg>
