<svg width="43" height="43" viewBox="0 0 43 43" fill="none" xmlns="http://www.w3.org/2000/svg">
<path d="M21.1492 14.8444V36.0777M21.1492 14.8444C21.1492 14.8444 21.1492 12.4062 21.1492 11.5777C21.1492 9.7736 22.6117 8.31107 24.4158 8.31107C26.22 8.31107 27.6825 9.7736 27.6825 11.5777C27.6825 13.3819 26.22 14.8444 24.4158 14.8444C23.4402 14.8444 21.1492 14.8444 21.1492 14.8444ZM21.1492 14.8444C21.1492 14.8444 21.1492 11.6805 21.1492 10.7611C21.1492 8.50591 19.321 6.67773 17.0658 6.67773C14.8107 6.67773 12.9825 8.50591 12.9825 10.7611C12.9825 13.0162 14.8107 14.8444 17.0658 14.8444C18.4016 14.8444 21.1492 14.8444 21.1492 14.8444ZM9.71582 21.3777H32.5825M9.71582 21.3777C7.91169 21.3777 6.44916 19.9152 6.44916 18.1111C6.44916 16.3069 7.91169 14.8444 9.71582 14.8444H32.5825C34.3866 14.8444 35.8492 16.3069 35.8492 18.1111C35.8492 19.9152 34.3866 21.3777 32.5825 21.3777M9.71582 21.3777L9.71582 32.8111C9.71582 34.6152 11.1784 36.0777 12.9825 36.0777H29.3158C31.12 36.0777 32.5825 34.6152 32.5825 32.8111V21.3777" stroke="#D4D4D4" stroke-width="3.67" stroke-linecap="round" stroke-linejoin="round"/>
</svg>
