<svg width="21" height="20" viewBox="0 0 21 20" fill="none" xmlns="http://www.w3.org/2000/svg">
<path d="M17.5 10C17.5 13.866 14.366 17 10.5 17M17.5 10C17.5 6.13401 14.366 3 10.5 3M17.5 10H3.5M10.5 17C6.63401 17 3.5 13.866 3.5 10M10.5 17C11.7887 17 12.8333 13.866 12.8333 10C12.8333 6.13401 11.7887 3 10.5 3M10.5 17C9.21134 17 8.16667 13.866 8.16667 10C8.16667 6.13401 9.21134 3 10.5 3M3.5 10C3.5 6.13401 6.63401 3 10.5 3" stroke="#F58C39" stroke-width="1.67" stroke-linecap="round" stroke-linejoin="round"/>
</svg>
