<svg width="15" height="16" viewBox="0 0 15 16" fill="none" xmlns="http://www.w3.org/2000/svg">
<path d="M12.0009 4.57244H10.9016L8.2045 7.26835C8.29739 7.50509 8.30593 7.7666 8.22869 8.0089C8.15144 8.2512 7.99312 8.45952 7.78035 8.59881C7.56758 8.73811 7.31333 8.7999 7.06036 8.77379C6.80739 8.74767 6.57113 8.63525 6.3913 8.45542C6.21147 8.27559 6.09905 8.03933 6.07293 7.78636C6.04682 7.53338 6.1086 7.27914 6.2479 7.06636C6.3872 6.85359 6.59551 6.69527 6.83781 6.61803C7.08011 6.54078 7.34162 6.54933 7.57837 6.64222L10.2749 3.94572V2.84645C10.2749 2.69935 10.3333 2.55829 10.4373 2.45423L11.4592 1.43234C11.4781 1.41325 11.5018 1.39969 11.5278 1.39313C11.5539 1.38657 11.5812 1.38726 11.6069 1.39512C11.6594 1.41048 11.6984 1.45419 11.7091 1.50795L11.9808 2.86712L13.3394 3.13884C13.3925 3.14947 13.4362 3.18846 13.4516 3.24103C13.4593 3.26657 13.46 3.29373 13.4536 3.31963C13.4471 3.34553 13.4338 3.36919 13.415 3.38811L12.3925 4.41C12.3411 4.46149 12.28 4.50234 12.2128 4.53021C12.1456 4.55808 12.0736 4.57243 12.0009 4.57244Z" fill="#525252"/>
<path d="M1.63603 7.67375C1.63603 9.14244 2.21947 10.551 3.25799 11.5895C4.29652 12.628 5.70506 13.2115 7.17375 13.2115C7.90097 13.2115 8.62107 13.0682 9.29294 12.7899C9.96481 12.5116 10.5753 12.1037 11.0895 11.5895C11.6037 11.0753 12.0116 10.4648 12.2899 9.79294C12.5682 9.12108 12.7115 8.40097 12.7115 7.67375C12.7115 7.14331 12.637 6.63059 12.4982 6.14564C12.4706 6.03429 12.4873 5.91657 12.5447 5.81727C12.6022 5.71797 12.6959 5.64482 12.8062 5.61321C12.9165 5.5816 13.0347 5.59401 13.136 5.64781C13.2373 5.70161 13.3138 5.79262 13.3494 5.90168C13.5113 6.4652 13.5975 7.05943 13.5975 7.67375C13.5975 11.2214 10.7214 14.0975 7.17375 14.0975C3.62607 14.0975 0.75 11.2214 0.75 7.67375C0.75 4.12607 3.62607 1.25 7.17375 1.25C7.7733 1.24941 8.3693 1.3327 8.94582 1.4975C9.00203 1.51327 9.05457 1.53999 9.10042 1.57613C9.14627 1.61228 9.18452 1.65712 9.21298 1.7081C9.24144 1.75907 9.25954 1.81517 9.26625 1.87317C9.27295 1.93116 9.26813 1.98991 9.25206 2.04603C9.23598 2.10216 9.20897 2.15455 9.17258 2.2002C9.13619 2.24586 9.09114 2.28386 9.04001 2.31204C8.98888 2.34022 8.93268 2.35802 8.87465 2.36441C8.81662 2.3708 8.7579 2.36566 8.70186 2.34928C8.20491 2.20735 7.69057 2.13558 7.17375 2.13604C5.70506 2.13604 4.29652 2.71947 3.25799 3.758C2.21947 4.79652 1.63603 6.20506 1.63603 7.67375Z" fill="#525252"/>
<path d="M4.2941 7.67373C4.29575 8.06495 4.37712 8.45174 4.53324 8.81047C4.68936 9.1692 4.91696 9.49235 5.20214 9.76018C5.48732 10.028 5.82409 10.2349 6.1919 10.3683C6.55971 10.5016 6.95084 10.5586 7.3414 10.5357C7.73196 10.5128 8.11376 10.4106 8.4635 10.2352C8.81323 10.0599 9.12355 9.81509 9.37552 9.5158C9.62749 9.21651 9.81582 8.86901 9.929 8.49451C10.0422 8.12001 10.0779 7.72637 10.0338 7.33762C10.0214 7.25889 10.0306 7.17827 10.0602 7.1043C10.0899 7.03033 10.1391 6.96577 10.2025 6.91746C10.2658 6.86915 10.3411 6.83888 10.4203 6.82986C10.4995 6.82085 10.5797 6.83342 10.6523 6.86625C10.8005 6.93241 10.9004 7.07358 10.9134 7.23543C11.0051 8.01234 10.8525 8.79851 10.4768 9.48469C10.1011 10.1709 9.52094 10.7229 8.817 11.0642C8.11305 11.4054 7.32028 11.5189 6.54888 11.3888C5.77747 11.2587 5.06576 10.8916 4.51266 10.3383C3.95971 9.78569 3.59244 9.07468 3.46178 8.30392C3.33112 7.53315 3.44354 6.74082 3.78347 6.03683C4.12339 5.33284 4.67396 4.75207 5.35881 4.37507C6.04367 3.99807 6.82887 3.84354 7.60551 3.93289C7.66422 3.93834 7.72125 3.95545 7.77327 3.98322C7.82528 4.011 7.87122 4.04888 7.90841 4.09464C7.94559 4.1404 7.97326 4.19313 7.98981 4.24972C8.00635 4.30632 8.01143 4.36565 8.00474 4.42423C7.99806 4.48281 7.97975 4.53947 7.95088 4.59089C7.92201 4.6423 7.88318 4.68744 7.83664 4.72365C7.7901 4.75986 7.73681 4.78642 7.67988 4.80176C7.62294 4.81711 7.56352 4.82093 7.50509 4.81302C7.10167 4.76637 6.69294 4.80558 6.30573 4.92804C5.91853 5.05051 5.5616 5.25348 5.25837 5.52363C4.95515 5.79378 4.71248 6.125 4.54629 6.49555C4.38011 6.86611 4.29416 7.26761 4.2941 7.67373Z" fill="#525252"/>
</svg>
