<svg width="20" height="20" viewBox="0 0 20 20" fill="none" xmlns="http://www.w3.org/2000/svg">
<path d="M9.10456 3.94647C9.38641 3.07904 10.6136 3.07904 10.8954 3.94647L11.9025 7.04576C12.0285 7.43369 12.39 7.69633 12.7979 7.69633H16.0567C16.9687 7.69633 17.348 8.86345 16.6101 9.39955L13.9737 11.315C13.6437 11.5548 13.5056 11.9797 13.6317 12.3677L14.6387 15.467C14.9205 16.3344 13.9277 17.0557 13.1898 16.5196L10.5534 14.6041C10.2234 14.3644 9.77658 14.3644 9.44659 14.6041L6.81018 16.5196C6.0723 17.0557 5.07949 16.3344 5.36133 15.467L6.36835 12.3677C6.4944 11.9797 6.35631 11.5548 6.02632 11.315L3.38991 9.39955C2.65203 8.86345 3.03125 7.69633 3.94332 7.69633H7.20211C7.61 7.69633 7.9715 7.43369 8.09754 7.04576L9.10456 3.94647Z" fill="#FFC171"/>
</svg>
