<svg width="39" height="40" viewBox="0 0 39 40" fill="none" xmlns="http://www.w3.org/2000/svg">
<path d="M23.8295 39.3512C24.4388 39.9936 25.5207 39.5858 25.5543 38.7011L26.0244 26.3454C26.0383 25.9794 26.2512 25.6503 26.5793 25.4876L37.5846 20.0278C38.372 19.6372 38.3086 18.4938 37.4829 18.1926L26.0231 14.012C25.6735 13.8845 25.4236 13.5733 25.3746 13.2045L23.7575 1.05106C23.6402 0.169249 22.5163 -0.131913 21.9738 0.573093L14.4967 10.2897C14.2697 10.5847 13.8978 10.7292 13.5312 10.6648L1.5165 8.55539C0.650802 8.4034 0.0242089 9.36196 0.510784 10.0939L7.31182 20.3249C7.51456 20.6299 7.53436 21.0213 7.36344 21.3452L1.59267 32.2806C1.17948 33.0635 1.91252 33.9577 2.76132 33.706L14.4382 30.2442C14.7989 30.1372 15.1891 30.2418 15.448 30.5147L23.8295 39.3512Z" fill="#FFC171"/>
</svg>
