<svg width="26" height="26" viewBox="0 0 26 26" fill="none" xmlns="http://www.w3.org/2000/svg">
<path d="M4.66683 20.2913C4.09391 20.2913 3.60329 20.0872 3.19496 19.6788C2.78662 19.2705 2.5828 18.7802 2.5835 18.208V7.79134C2.5835 7.21843 2.78766 6.7278 3.196 6.31947C3.60433 5.91113 4.09461 5.70732 4.66683 5.70801H21.3335C21.9064 5.70801 22.397 5.91218 22.8054 6.32051C23.2137 6.72884 23.4175 7.21912 23.4168 7.79134V18.208C23.4168 18.7809 23.2127 19.2716 22.8043 19.6799C22.396 20.0882 21.9057 20.292 21.3335 20.2913H4.66683ZM8.8335 17.1663H17.1668V15.083H8.8335V17.1663ZM5.7085 14.0413H7.79183V11.958H5.7085V14.0413ZM8.8335 14.0413H10.9168V11.958H8.8335V14.0413ZM11.9585 14.0413H14.0418V11.958H11.9585V14.0413ZM15.0835 14.0413H17.1668V11.958H15.0835V14.0413ZM18.2085 14.0413H20.2918V11.958H18.2085V14.0413ZM5.7085 10.9163H7.79183V8.83301H5.7085V10.9163ZM8.8335 10.9163H10.9168V8.83301H8.8335V10.9163ZM11.9585 10.9163H14.0418V8.83301H11.9585V10.9163ZM15.0835 10.9163H17.1668V8.83301H15.0835V10.9163ZM18.2085 10.9163H20.2918V8.83301H18.2085V10.9163Z" fill="#F58C39"/>
</svg>
