<svg width="20" height="20" viewBox="0 0 20 20" fill="none" xmlns="http://www.w3.org/2000/svg">
<path d="M8.1827 13.8889H11.8172M9.99996 3V3.77778M14.9497 5.05025L14.3997 5.60022M17 9.99996H16.2222M3.77778 9.99996H3M5.60018 5.60022L5.05021 5.05025M7.2501 12.7499C5.73139 11.2312 5.73139 8.76886 7.2501 7.25016C8.7688 5.73145 11.2311 5.73145 12.7498 7.25016C14.2685 8.76886 14.2685 11.2312 12.7498 12.7499L12.3243 13.1754C11.8321 13.6676 11.5555 14.3353 11.5555 15.0314V15.4444C11.5555 16.3036 10.8591 17 9.99996 17C9.14085 17 8.4444 16.3036 8.4444 15.4444V15.0314C8.4444 14.3353 8.16786 13.6676 7.67562 13.1754L7.2501 12.7499Z" stroke="#404040" stroke-width="1.67" stroke-linecap="round" stroke-linejoin="round"/>
</svg>
