<svg width="154" height="160" viewBox="0 0 154 160" fill="none" xmlns="http://www.w3.org/2000/svg">
<g filter="url(#filter0_dd_774_27520)">
<path fill-rule="evenodd" clip-rule="evenodd" d="M119 77.0634C119 100.307 100.184 119.127 77 119.127C53.8164 119.127 35 100.307 35 77.0634C35 53.82 53.8164 35 77 35C100.184 35 119 53.82 119 77.0634ZM130 77.0634C130 106.37 106.271 130.127 77 130.127C47.7289 130.127 24 106.37 24 77.0634C24 47.7573 47.7289 24 77 24C106.271 24 130 47.7573 130 77.0634ZM39.642 121.513C35.5565 117.422 28.6637 118.54 26.0795 123.711C22.4422 130.991 30.1678 138.709 37.4436 135.065C42.6059 132.479 43.7222 125.598 39.642 121.513Z" fill="#F58C39"/>
</g>
<defs>
<filter id="filter0_dd_774_27520" x="0" y="0" width="154" height="159.998" filterUnits="userSpaceOnUse" color-interpolation-filters="sRGB">
<feFlood flood-opacity="0" result="BackgroundImageFix"/>
<feColorMatrix in="SourceAlpha" type="matrix" values="0 0 0 0 0 0 0 0 0 0 0 0 0 0 0 0 0 0 127 0" result="hardAlpha"/>
<feOffset dx="-8" dy="-8"/>
<feGaussianBlur stdDeviation="8"/>
<feComposite in2="hardAlpha" operator="out"/>
<feColorMatrix type="matrix" values="0 0 0 0 0.994368 0 0 0 0 0.593275 0 0 0 0 0.276219 0 0 0 1 0"/>
<feBlend mode="normal" in2="BackgroundImageFix" result="effect1_dropShadow_774_27520"/>
<feColorMatrix in="SourceAlpha" type="matrix" values="0 0 0 0 0 0 0 0 0 0 0 0 0 0 0 0 0 0 127 0" result="hardAlpha"/>
<feOffset dx="8" dy="8"/>
<feGaussianBlur stdDeviation="8"/>
<feComposite in2="hardAlpha" operator="out"/>
<feColorMatrix type="matrix" values="0 0 0 0 0.860596 0 0 0 0 0.424653 0 0 0 0 0.0800505 0 0 0 1 0"/>
<feBlend mode="normal" in2="effect1_dropShadow_774_27520" result="effect2_dropShadow_774_27520"/>
<feBlend mode="normal" in="SourceGraphic" in2="effect2_dropShadow_774_27520" result="shape"/>
</filter>
</defs>
</svg>
