<svg width="42" height="42" viewBox="0 0 42 42" fill="none" xmlns="http://www.w3.org/2000/svg">
<g clip-path="url(#clip0_1428_18423)">
<path d="M23.625 5.25C27.5701 5.25 31.3536 6.81718 34.1432 9.60679C36.9328 12.3964 38.5 16.1799 38.5 20.125C38.5 24.0701 36.9328 27.8536 34.1432 30.6432C31.3536 33.4328 27.5701 35 23.625 35H22.75V36.7325C22.75 36.9648 22.7042 37.1947 22.6153 37.4093C22.5264 37.6239 22.396 37.8188 22.2317 37.9829C22.0674 38.1471 21.8723 38.2772 21.6577 38.366C21.443 38.4547 21.213 38.5002 20.9808 38.5C16.6758 38.4965 12.3147 37.0597 9.0055 34.118C5.6665 31.1465 3.5035 26.7312 3.5 21.0157V20.125C3.5 16.1799 5.06718 12.3964 7.85679 9.60679C10.6464 6.81718 14.4299 5.25 18.375 5.25H23.625ZM23.625 8.75H18.375C15.3582 8.75 12.4649 9.94843 10.3317 12.0817C8.19843 14.2149 7 17.1082 7 20.125L7.00175 21.2887C7.07175 25.9123 8.8235 29.2722 11.333 31.5017C13.4995 33.4302 16.3048 34.58 19.25 34.9037V33.2675C19.25 32.291 20.041 31.5 21.0175 31.5H23.625C26.6418 31.5 29.5351 30.3016 31.6683 28.1683C33.8016 26.0351 35 23.1418 35 20.125C35 17.1082 33.8016 14.2149 31.6683 12.0817C29.5351 9.94843 26.6418 8.75 23.625 8.75ZM14.875 17.5C15.5712 17.5 16.2389 17.7766 16.7312 18.2688C17.2234 18.7611 17.5 19.4288 17.5 20.125C17.5 20.8212 17.2234 21.4889 16.7312 21.9812C16.2389 22.4734 15.5712 22.75 14.875 22.75C14.1788 22.75 13.5111 22.4734 13.0188 21.9812C12.5266 21.4889 12.25 20.8212 12.25 20.125C12.25 19.4288 12.5266 18.7611 13.0188 18.2688C13.5111 17.7766 14.1788 17.5 14.875 17.5ZM27.125 17.5C27.8212 17.5 28.4889 17.7766 28.9812 18.2688C29.4734 18.7611 29.75 19.4288 29.75 20.125C29.75 20.8212 29.4734 21.4889 28.9812 21.9812C28.4889 22.4734 27.8212 22.75 27.125 22.75C26.4288 22.75 25.7611 22.4734 25.2688 21.9812C24.7766 21.4889 24.5 20.8212 24.5 20.125C24.5 19.4288 24.7766 18.7611 25.2688 18.2688C25.7611 17.7766 26.4288 17.5 27.125 17.5Z" fill="#F58C39"/>
</g>
<defs>
<clipPath id="clip0_1428_18423">
<rect width="42" height="42" fill="white"/>
</clipPath>
</defs>
</svg>
