<svg width="22" height="22" viewBox="0 0 22 22" fill="none" xmlns="http://www.w3.org/2000/svg">
<path d="M12.375 2.75C14.4415 2.75 16.4234 3.57091 17.8846 5.03213C19.3458 6.49335 20.1667 8.47519 20.1667 10.5417C20.1667 12.6081 19.3458 14.59 17.8846 16.0512C16.4234 17.5124 14.4415 18.3333 12.375 18.3333H11.9167V19.2408C11.9167 19.3625 11.8927 19.483 11.8461 19.5953C11.7996 19.7077 11.7313 19.8098 11.6452 19.8958C11.5591 19.9818 11.457 20.05 11.3445 20.0965C11.2321 20.1429 11.1116 20.1668 10.99 20.1667C8.73496 20.1648 6.45062 19.4122 4.71721 17.8713C2.96821 16.3148 1.83521 14.0021 1.83337 11.0082V10.5417C1.83337 8.47519 2.65428 6.49335 4.1155 5.03213C5.57672 3.57091 7.55856 2.75 9.62504 2.75H12.375ZM12.375 4.58333H9.62504C8.04479 4.58333 6.52927 5.21108 5.41186 6.32849C4.29446 7.44589 3.66671 8.96142 3.66671 10.5417L3.66762 11.1512C3.70429 13.5731 4.62187 15.3331 5.93637 16.5009C7.07121 17.5111 8.54062 18.1133 10.0834 18.2829V17.4258C10.0834 16.9143 10.4977 16.5 11.0092 16.5H12.375C13.9553 16.5 15.4708 15.8722 16.5882 14.7548C17.7056 13.6374 18.3334 12.1219 18.3334 10.5417C18.3334 8.96142 17.7056 7.44589 16.5882 6.32849C15.4708 5.21108 13.9553 4.58333 12.375 4.58333ZM7.79171 9.16667C8.15638 9.16667 8.50612 9.31153 8.76398 9.56939C9.02184 9.82726 9.16671 10.177 9.16671 10.5417C9.16671 10.9063 9.02184 11.2561 8.76398 11.5139C8.50612 11.7718 8.15638 11.9167 7.79171 11.9167C7.42703 11.9167 7.0773 11.7718 6.81944 11.5139C6.56157 11.2561 6.41671 10.9063 6.41671 10.5417C6.41671 10.177 6.56157 9.82726 6.81944 9.56939C7.0773 9.31153 7.42703 9.16667 7.79171 9.16667ZM14.2084 9.16667C14.573 9.16667 14.9228 9.31153 15.1806 9.56939C15.4385 9.82726 15.5834 10.177 15.5834 10.5417C15.5834 10.9063 15.4385 11.2561 15.1806 11.5139C14.9228 11.7718 14.573 11.9167 14.2084 11.9167C13.8437 11.9167 13.494 11.7718 13.2361 11.5139C12.9782 11.2561 12.8334 10.9063 12.8334 10.5417C12.8334 10.177 12.9782 9.82726 13.2361 9.56939C13.494 9.31153 13.8437 9.16667 14.2084 9.16667Z" fill="#737373"/>
</svg>
