<svg width="31" height="31" viewBox="0 0 31 31" fill="none" xmlns="http://www.w3.org/2000/svg">
<g clip-path="url(#clip0_1428_21593)">
<path d="M17.375 4.625C20.1929 4.625 22.8954 5.74442 24.888 7.73699C26.8806 9.72956 28 12.4321 28 15.25C28 18.0679 26.8806 20.7704 24.888 22.763C22.8954 24.7556 20.1929 25.875 17.375 25.875H16.75V27.1125C16.75 27.2784 16.7173 27.4427 16.6538 27.5959C16.5903 27.7492 16.4971 27.8884 16.3798 28.0057C16.2624 28.1229 16.1231 28.2159 15.9698 28.2793C15.8165 28.3426 15.6521 28.3752 15.4862 28.375C12.4113 28.3725 9.29625 27.3463 6.9325 25.245C4.5475 23.1225 3.0025 19.9688 3 15.8862V15.25C3 12.4321 4.11942 9.72956 6.11199 7.73699C8.10456 5.74442 10.8071 4.625 13.625 4.625H17.375ZM17.375 7.125H13.625C11.4701 7.125 9.40349 7.98102 7.87976 9.50476C6.35602 11.0285 5.5 13.0951 5.5 15.25L5.50125 16.0813C5.55125 19.3837 6.8025 21.7837 8.595 23.3762C10.1425 24.7537 12.1462 25.575 14.25 25.8062V24.6375C14.25 23.94 14.815 23.375 15.5125 23.375H17.375C19.5299 23.375 21.5965 22.519 23.1202 20.9952C24.644 19.4715 25.5 17.4049 25.5 15.25C25.5 13.0951 24.644 11.0285 23.1202 9.50476C21.5965 7.98102 19.5299 7.125 17.375 7.125ZM11.125 13.375C11.6223 13.375 12.0992 13.5725 12.4508 13.9242C12.8025 14.2758 13 14.7527 13 15.25C13 15.7473 12.8025 16.2242 12.4508 16.5758C12.0992 16.9275 11.6223 17.125 11.125 17.125C10.6277 17.125 10.1508 16.9275 9.79917 16.5758C9.44754 16.2242 9.25 15.7473 9.25 15.25C9.25 14.7527 9.44754 14.2758 9.79917 13.9242C10.1508 13.5725 10.6277 13.375 11.125 13.375ZM19.875 13.375C20.3723 13.375 20.8492 13.5725 21.2008 13.9242C21.5525 14.2758 21.75 14.7527 21.75 15.25C21.75 15.7473 21.5525 16.2242 21.2008 16.5758C20.8492 16.9275 20.3723 17.125 19.875 17.125C19.3777 17.125 18.9008 16.9275 18.5492 16.5758C18.1975 16.2242 18 15.7473 18 15.25C18 14.7527 18.1975 14.2758 18.5492 13.9242C18.9008 13.5725 19.3777 13.375 19.875 13.375Z" fill="#171717"/>
</g>
<defs>
<clipPath id="clip0_1428_21593">
<rect width="30" height="30" fill="white" transform="translate(0.5 0.875)"/>
</clipPath>
</defs>
</svg>
