<svg width="18" height="18" viewBox="0 0 18 18" fill="none" xmlns="http://www.w3.org/2000/svg">
<path d="M6.75 3L8.625 7.125L12.75 9L8.625 10.875L6.75 15L4.875 10.875L0.75 9L4.875 7.125L6.75 3ZM6.75 6.6225L6 8.25L4.3725 9L6 9.75L6.75 11.3775L7.5 9.75L9.1275 9L7.5 8.25L6.75 6.6225ZM14.25 6.75L13.305 4.695L11.25 3.75L13.305 2.8125L14.25 0.75L15.1875 2.8125L17.25 3.75L15.1875 4.695L14.25 6.75ZM14.25 17.25L13.305 15.195L11.25 14.25L13.305 13.3125L14.25 11.25L15.1875 13.3125L17.25 14.25L15.1875 15.195L14.25 17.25Z" fill="#F58C39"/>
</svg>
