<svg width="40" height="40" viewBox="0 0 40 40" fill="none" xmlns="http://www.w3.org/2000/svg">
<path d="M11.51 7.5617C11.3582 7.47168 11.1852 7.42345 11.0087 7.42191C10.8322 7.42037 10.6585 7.46557 10.5051 7.55292C10.3517 7.64028 10.2242 7.76667 10.1355 7.91926C10.0468 8.07185 10 8.2452 10 8.4217V31.5784C10 31.7549 10.0468 31.9282 10.1355 32.0808C10.2242 32.2334 10.3517 32.3598 10.5051 32.4471C10.6585 32.5345 10.8322 32.5797 11.0087 32.5782C11.1852 32.5766 11.3582 32.5284 11.51 32.4384L31.0483 20.86C31.1976 20.7715 31.3212 20.6456 31.407 20.4949C31.4929 20.3441 31.538 20.1735 31.538 20C31.538 19.8265 31.4929 19.656 31.407 19.5052C31.3212 19.3544 31.1976 19.2286 31.0483 19.14L11.51 7.5617Z" fill="#F58C39" stroke="#F58C39" stroke-width="1.25" stroke-linecap="round" stroke-linejoin="round"/>
</svg>
