<svg width="26" height="26" viewBox="0 0 26 26" fill="none" xmlns="http://www.w3.org/2000/svg">
<path fill-rule="evenodd" clip-rule="evenodd" d="M13 4.25C13.6904 4.25 14.25 4.80964 14.25 5.5V11.75H20.5C21.1904 11.75 21.75 12.3096 21.75 13C21.75 13.6904 21.1904 14.25 20.5 14.25H14.25V20.5C14.25 21.1904 13.6904 21.75 13 21.75C12.3096 21.75 11.75 21.1904 11.75 20.5V14.25H5.5C4.80964 14.25 4.25 13.6904 4.25 13C4.25 12.3096 4.80964 11.75 5.5 11.75L11.75 11.75V5.5C11.75 4.80964 12.3096 4.25 13 4.25Z" fill="#F58C39"/>
</svg>
