<svg width="20" height="20" viewBox="0 0 20 20" fill="none" xmlns="http://www.w3.org/2000/svg">
<path d="M11.2499 4.58333C12.1582 4.58333 12.9165 3.81667 12.9165 2.91667C12.9165 2.47464 12.7409 2.05072 12.4284 1.73816C12.1158 1.42559 11.6919 1.25 11.2499 1.25C10.3249 1.25 9.5832 1.98333 9.5832 2.91667C9.5832 3.81667 10.3249 4.58333 11.2499 4.58333ZM8.24154 16.15L9.07487 12.5L10.8332 14.1667V19.1667H12.4999V12.9167L10.7415 11.25L11.2499 8.75C11.8205 9.4047 12.5249 9.92943 13.3156 10.2888C14.1062 10.6482 14.9647 10.8339 15.8332 10.8333V9.16667C14.2415 9.16667 12.9165 8.33333 12.2415 7.15L11.4082 5.83333C11.0749 5.31667 10.5749 5 9.99987 5C9.74154 5 9.5832 5.06667 9.32487 5.06667L4.99987 6.9V10.8333H6.66654V7.98333L8.1582 7.4L6.82487 14.1667L2.74154 13.3333L2.4082 15L8.24154 16.15Z" fill="#525252"/>
</svg>
