<svg width="50" height="52" viewBox="0 0 50 52" fill="none" xmlns="http://www.w3.org/2000/svg">
<g filter="url(#filter0_dd_1213_4295)">
<rect x="7" y="8" width="36" height="36" rx="11" fill="#F1F5F9" shape-rendering="crispEdges"/>
<path d="M20.8333 33.2913C21.9792 33.2913 22.9167 32.3538 22.9167 31.208V20.7913C22.9167 19.6455 21.9792 18.708 20.8333 18.708C19.6875 18.708 18.75 19.6455 18.75 20.7913V31.208C18.75 32.3538 19.6875 33.2913 20.8333 33.2913ZM27.0833 20.7913V31.208C27.0833 32.3538 28.0208 33.2913 29.1667 33.2913C30.3125 33.2913 31.25 32.3538 31.25 31.208V20.7913C31.25 19.6455 30.3125 18.708 29.1667 18.708C28.0208 18.708 27.0833 19.6455 27.0833 20.7913Z" fill="#737373"/>
</g>
<defs>
<filter id="filter0_dd_1213_4295" x="0" y="0" width="50" height="52" filterUnits="userSpaceOnUse" color-interpolation-filters="sRGB">
<feFlood flood-opacity="0" result="BackgroundImageFix"/>
<feColorMatrix in="SourceAlpha" type="matrix" values="0 0 0 0 0 0 0 0 0 0 0 0 0 0 0 0 0 0 127 0" result="hardAlpha"/>
<feOffset dx="-2" dy="-3"/>
<feGaussianBlur stdDeviation="2.5"/>
<feComposite in2="hardAlpha" operator="out"/>
<feColorMatrix type="matrix" values="0 0 0 0 1 0 0 0 0 1 0 0 0 0 1 0 0 0 1 0"/>
<feBlend mode="normal" in2="BackgroundImageFix" result="effect1_dropShadow_1213_4295"/>
<feColorMatrix in="SourceAlpha" type="matrix" values="0 0 0 0 0 0 0 0 0 0 0 0 0 0 0 0 0 0 127 0" result="hardAlpha"/>
<feOffset dx="2" dy="3"/>
<feGaussianBlur stdDeviation="2.5"/>
<feComposite in2="hardAlpha" operator="out"/>
<feColorMatrix type="matrix" values="0 0 0 0 0.79 0 0 0 0 0.85 0 0 0 0 0.91 0 0 0 0.61 0"/>
<feBlend mode="normal" in2="effect1_dropShadow_1213_4295" result="effect2_dropShadow_1213_4295"/>
<feBlend mode="normal" in="SourceGraphic" in2="effect2_dropShadow_1213_4295" result="shape"/>
</filter>
</defs>
</svg>
