<svg width="20" height="20" viewBox="0 0 20 20" fill="none" xmlns="http://www.w3.org/2000/svg">
<path d="M7.89474 5.21053C8.67643 5.21053 9.4261 5.52105 9.97884 6.07379C10.5316 6.62653 10.8421 7.3762 10.8421 8.15789C10.8421 8.93959 10.5316 9.68926 9.97884 10.242C9.4261 10.7947 8.67643 11.1053 7.89474 11.1053C7.11305 11.1053 6.36337 10.7947 5.81063 10.242C5.25789 9.68926 4.94737 8.93959 4.94737 8.15789C4.94737 7.3762 5.25789 6.62653 5.81063 6.07379C6.36337 5.52105 7.11305 5.21053 7.89474 5.21053ZM7.89474 12.5789C9.8621 12.5789 13.7895 13.5663 13.7895 15.5263V17H2V15.5263C2 13.5663 5.92737 12.5789 7.89474 12.5789ZM13.6126 5.47579C15.1011 7.09684 15.1011 9.34421 13.6126 10.8326L12.3747 9.58737C12.9937 8.71789 12.9937 7.59053 12.3747 6.72105L13.6126 5.47579ZM16.0516 3C18.9474 5.98421 18.9253 10.4495 16.0516 13.3158L14.8505 12.1147C16.8916 9.77158 16.8916 6.42632 14.8505 4.20105L16.0516 3Z" fill="#404040"/>
</svg>
