<svg width="18" height="18" viewBox="0 0 18 18" fill="none" xmlns="http://www.w3.org/2000/svg">
<path d="M7.10507 4.68967C7.80859 4.68967 8.4833 4.96914 8.98076 5.46661C9.47823 5.96407 9.7577 6.63878 9.7577 7.3423C9.7577 8.04582 9.47823 8.72053 8.98076 9.21799C8.4833 9.71546 7.80859 9.99493 7.10507 9.99493C6.40155 9.99493 5.72684 9.71546 5.22937 9.21799C4.73191 8.72053 4.45244 8.04582 4.45244 7.3423C4.45244 6.63878 4.73191 5.96407 5.22937 5.46661C5.72684 4.96914 6.40155 4.68967 7.10507 4.68967ZM7.10507 11.3212C8.8757 11.3212 12.4103 12.2099 12.4103 13.9739V15.3002H1.7998V13.9739C1.7998 12.2099 5.33444 11.3212 7.10507 11.3212ZM12.2512 4.92841C13.5908 6.38735 13.5908 8.40999 12.2512 9.74956L11.1371 8.62883C11.6941 7.8463 11.6941 6.83167 11.1371 6.04914L12.2512 4.92841ZM14.4462 2.7002C17.0524 5.38599 17.0325 9.40472 14.4462 11.9844L13.3653 10.9035C15.2022 8.79462 15.2022 5.78388 13.3653 3.78114L14.4462 2.7002Z" fill="#A3A3A3"/>
</svg>
