<svg width="39" height="40" viewBox="0 0 39 40" fill="none" xmlns="http://www.w3.org/2000/svg">
<path d="M14.5849 39.3512C13.9756 39.9936 12.8937 39.5858 12.8601 38.7011L12.39 26.3454C12.3761 25.9794 12.1633 25.6503 11.8352 25.4876L0.82983 20.0278C0.0424603 19.6372 0.105829 18.4938 0.931538 18.1926L12.3913 14.012C12.7409 13.8845 12.9908 13.5733 13.0399 13.2045L14.6569 1.05106C14.7742 0.169249 15.8982 -0.131913 16.4407 0.573093L23.9178 10.2897C24.1447 10.5847 24.5167 10.7292 24.8832 10.6648L36.8979 8.55539C37.7636 8.4034 38.3902 9.36196 37.9036 10.0939L31.1026 20.3249C30.8999 20.6299 30.8801 21.0213 31.051 21.3452L36.8218 32.2806C37.2349 33.0635 36.5019 33.9577 35.6531 33.706L23.9762 30.2442C23.6155 30.1372 23.2253 30.2418 22.9664 30.5147L14.5849 39.3512Z" fill="#E5E5E5"/>
</svg>
