<svg width="42" height="42" viewBox="0 0 42 42" fill="none" xmlns="http://www.w3.org/2000/svg">
<path d="M16.59 10.7098C16.59 8.27423 18.5644 6.2998 21 6.2998C23.4355 6.2998 25.41 8.27423 25.41 10.7098V19.5298C25.41 21.9654 23.4355 23.9398 21 23.9398C18.5644 23.9398 16.59 21.9654 16.59 19.5298V10.7098Z" fill="#F58C39"/>
<path d="M31.29 19.5298C31.29 25.2128 26.683 29.8198 21 29.8198M21 29.8198C15.317 29.8198 10.71 25.2128 10.71 19.5298M21 29.8198V35.6998M21 35.6998H15.12M21 35.6998H26.88M21 23.9398C18.5644 23.9398 16.59 21.9654 16.59 19.5298V10.7098C16.59 8.27423 18.5644 6.2998 21 6.2998C23.4355 6.2998 25.41 8.27423 25.41 10.7098V19.5298C25.41 21.9654 23.4355 23.9398 21 23.9398Z" stroke="#F58C39" stroke-width="1.67" stroke-linecap="round" stroke-linejoin="round"/>
</svg>
