<svg width="92" height="92" viewBox="0 0 92 92" fill="none" xmlns="http://www.w3.org/2000/svg">
<g filter="url(#filter0_dd_1294_5179)">
<rect x="24.9062" y="24.9062" width="42.1875" height="42.1875" rx="21.0938" fill="#F1F5F9"/>
</g>
<path d="M22.4639 37.5708C24.3134 32.4067 27.8099 27.9942 32.4145 25.0134C37.0192 22.0327 42.4764 20.649 47.945 21.0758L47.6338 25.0637C43.0402 24.7052 38.4561 25.8674 34.5882 28.3713C30.7203 30.8752 27.7832 34.5816 26.2297 38.9194L22.4639 37.5708Z" fill="url(#paint0_angular_1294_5179)"/>
<g filter="url(#filter1_d_1294_5179)">
<rect x="22.8369" y="36.8301" width="11.4124" height="0.78125" transform="rotate(21.018 22.8369 36.8301)" fill="#7DDFDE"/>
</g>
<g filter="url(#filter2_dd_1294_5179)">
<rect x="31.9375" y="31.9375" width="28.125" height="28.125" rx="14.0625" fill="#F1F5F9" shape-rendering="crispEdges"/>
<path d="M36.6351 49V43.06L37.0221 43.483H35.2131V42.7H37.5261V49H36.6351ZM38.8052 49V48.388L41.3702 45.913C41.5982 45.697 41.7662 45.508 41.8742 45.346C41.9882 45.178 42.0632 45.025 42.0992 44.887C42.1412 44.743 42.1622 44.605 42.1622 44.473C42.1622 44.149 42.0482 43.894 41.8202 43.708C41.5922 43.522 41.2592 43.429 40.8212 43.429C40.4852 43.429 40.1822 43.486 39.9122 43.6C39.6422 43.708 39.4082 43.879 39.2102 44.113L38.5982 43.582C38.8382 43.276 39.1592 43.042 39.5612 42.88C39.9692 42.712 40.4162 42.628 40.9022 42.628C41.3402 42.628 41.7212 42.7 42.0452 42.844C42.3692 42.982 42.6182 43.183 42.7922 43.447C42.9722 43.711 43.0622 44.023 43.0622 44.383C43.0622 44.587 43.0352 44.788 42.9812 44.986C42.9272 45.184 42.8252 45.394 42.6752 45.616C42.5252 45.838 42.3092 46.087 42.0272 46.363L39.7412 48.568L39.5252 48.217H43.3322V49H38.8052ZM44.6661 45.418C44.4981 45.418 44.3541 45.361 44.2341 45.247C44.1141 45.127 44.0541 44.977 44.0541 44.797C44.0541 44.617 44.1141 44.47 44.2341 44.356C44.3541 44.242 44.4981 44.185 44.6661 44.185C44.8281 44.185 44.9661 44.242 45.0801 44.356C45.2001 44.47 45.2601 44.617 45.2601 44.797C45.2601 44.977 45.2001 45.127 45.0801 45.247C44.9661 45.361 44.8281 45.418 44.6661 45.418ZM44.6661 49.054C44.4981 49.054 44.3541 48.997 44.2341 48.883C44.1141 48.763 44.0541 48.613 44.0541 48.433C44.0541 48.253 44.1141 48.106 44.2341 47.992C44.3541 47.878 44.4981 47.821 44.6661 47.821C44.8281 47.821 44.9661 47.878 45.0801 47.992C45.2001 48.106 45.2601 48.253 45.2601 48.433C45.2601 48.613 45.2001 48.763 45.0801 48.883C44.9661 48.997 44.8281 49.054 44.6661 49.054ZM46.0212 47.452V46.822L49.2432 42.7H50.2152L47.0202 46.822L46.5612 46.678H51.5922V47.452H46.0212ZM49.5222 49V47.452L49.5492 46.678V45.31H50.3952V49H49.5222ZM54.1569 49.072C53.7129 49.072 53.2809 49.003 52.8609 48.865C52.4469 48.727 52.1079 48.541 51.8439 48.307L52.2579 47.596C52.4679 47.794 52.7409 47.956 53.0769 48.082C53.4129 48.208 53.7699 48.271 54.1479 48.271C54.6279 48.271 54.9969 48.169 55.2549 47.965C55.5129 47.761 55.6419 47.488 55.6419 47.146C55.6419 46.912 55.5849 46.708 55.4709 46.534C55.3569 46.36 55.1589 46.228 54.8769 46.138C54.6009 46.042 54.2199 45.994 53.7339 45.994H52.3029L52.6359 42.7H56.1909V43.483H52.9689L53.4369 43.042L53.1759 45.643L52.7079 45.211H53.9229C54.5529 45.211 55.0599 45.292 55.4439 45.454C55.8279 45.616 56.1069 45.841 56.2809 46.129C56.4549 46.411 56.5419 46.738 56.5419 47.11C56.5419 47.47 56.4549 47.8 56.2809 48.1C56.1069 48.394 55.8429 48.631 55.4889 48.811C55.1409 48.985 54.6969 49.072 54.1569 49.072Z" fill="#737373"/>
</g>
<defs>
<filter id="filter0_dd_1294_5179" x="0.90625" y="0.90625" width="90.1875" height="90.1875" filterUnits="userSpaceOnUse" color-interpolation-filters="sRGB">
<feFlood flood-opacity="0" result="BackgroundImageFix"/>
<feColorMatrix in="SourceAlpha" type="matrix" values="0 0 0 0 0 0 0 0 0 0 0 0 0 0 0 0 0 0 127 0" result="hardAlpha"/>
<feOffset dx="-8" dy="-8"/>
<feGaussianBlur stdDeviation="8"/>
<feComposite in2="hardAlpha" operator="out"/>
<feColorMatrix type="matrix" values="0 0 0 0 1 0 0 0 0 1 0 0 0 0 1 0 0 0 1 0"/>
<feBlend mode="normal" in2="BackgroundImageFix" result="effect1_dropShadow_1294_5179"/>
<feColorMatrix in="SourceAlpha" type="matrix" values="0 0 0 0 0 0 0 0 0 0 0 0 0 0 0 0 0 0 127 0" result="hardAlpha"/>
<feOffset dx="8" dy="8"/>
<feGaussianBlur stdDeviation="8"/>
<feComposite in2="hardAlpha" operator="out"/>
<feColorMatrix type="matrix" values="0 0 0 0 0.79 0 0 0 0 0.85 0 0 0 0 0.91 0 0 0 1 0"/>
<feBlend mode="normal" in2="effect1_dropShadow_1294_5179" result="effect2_dropShadow_1294_5179"/>
<feBlend mode="normal" in="SourceGraphic" in2="effect2_dropShadow_1294_5179" result="shape"/>
</filter>
<filter id="filter1_d_1294_5179" x="21.5566" y="35.8301" width="14.9336" height="8.82227" filterUnits="userSpaceOnUse" color-interpolation-filters="sRGB">
<feFlood flood-opacity="0" result="BackgroundImageFix"/>
<feColorMatrix in="SourceAlpha" type="matrix" values="0 0 0 0 0 0 0 0 0 0 0 0 0 0 0 0 0 0 127 0" result="hardAlpha"/>
<feOffset dx="1" dy="1"/>
<feGaussianBlur stdDeviation="1"/>
<feComposite in2="hardAlpha" operator="out"/>
<feColorMatrix type="matrix" values="0 0 0 0 0 0 0 0 0 0 0 0 0 0 0 0 0 0 0.7 0"/>
<feBlend mode="normal" in2="BackgroundImageFix" result="effect1_dropShadow_1294_5179"/>
<feBlend mode="normal" in="SourceGraphic" in2="effect1_dropShadow_1294_5179" result="shape"/>
</filter>
<filter id="filter2_dd_1294_5179" x="7" y="7.9375" width="78" height="76.125" filterUnits="userSpaceOnUse" color-interpolation-filters="sRGB">
<feFlood flood-opacity="0" result="BackgroundImageFix"/>
<feColorMatrix in="SourceAlpha" type="matrix" values="0 0 0 0 0 0 0 0 0 0 0 0 0 0 0 0 0 0 127 0" result="hardAlpha"/>
<feOffset dx="-8" dy="-8"/>
<feGaussianBlur stdDeviation="8"/>
<feComposite in2="hardAlpha" operator="out"/>
<feColorMatrix type="matrix" values="0 0 0 0 1 0 0 0 0 1 0 0 0 0 1 0 0 0 1 0"/>
<feBlend mode="normal" in2="BackgroundImageFix" result="effect1_dropShadow_1294_5179"/>
<feColorMatrix in="SourceAlpha" type="matrix" values="0 0 0 0 0 0 0 0 0 0 0 0 0 0 0 0 0 0 127 0" result="hardAlpha"/>
<feOffset dx="8" dy="8"/>
<feGaussianBlur stdDeviation="8"/>
<feComposite in2="hardAlpha" operator="out"/>
<feColorMatrix type="matrix" values="0 0 0 0 0.79 0 0 0 0 0.85 0 0 0 0 0.91 0 0 0 1 0"/>
<feBlend mode="normal" in2="effect1_dropShadow_1294_5179" result="effect2_dropShadow_1294_5179"/>
<feBlend mode="normal" in="SourceGraphic" in2="effect2_dropShadow_1294_5179" result="shape"/>
</filter>
<radialGradient id="paint0_angular_1294_5179" cx="0" cy="0" r="1" gradientUnits="userSpaceOnUse" gradientTransform="translate(46 46) rotate(-160.427) scale(23.8799 23.2958)">
<stop stop-color="#7DDFDE"/>
<stop offset="1" stop-color="#7DDFDE" stop-opacity="0.2"/>
</radialGradient>
</defs>
</svg>
