<svg width="18" height="19" viewBox="0 0 18 19" fill="none" xmlns="http://www.w3.org/2000/svg">
<path fill-rule="evenodd" clip-rule="evenodd" d="M8.56783 4.65382C8.82941 4.76216 8.99996 5.01741 8.99996 5.30053V13.7005C8.99996 13.9837 8.82941 14.2389 8.56783 14.3473C8.30626 14.4556 8.00518 14.3957 7.80498 14.1955L5.21 11.6005H3.39995C3.01335 11.6005 2.69995 11.2871 2.69995 10.9005V8.10054C2.69995 7.71394 3.01335 7.40053 3.39995 7.40053H5.21L7.80498 4.80556C8.00518 4.60536 8.30626 4.54547 8.56783 4.65382Z" fill="#A3A3A3"/>
<path fill-rule="evenodd" clip-rule="evenodd" d="M12.2597 4.55073C12.5331 4.27736 12.9763 4.27736 13.2497 4.55073C14.5157 5.81671 15.3 7.56767 15.3 9.50048C15.3 11.4333 14.5157 13.1842 13.2497 14.4502C12.9763 14.7236 12.5331 14.7236 12.2597 14.4502C11.9864 14.1769 11.9864 13.7336 12.2597 13.4603C13.2739 12.4461 13.9 11.0471 13.9 9.50048C13.9 7.95389 13.2739 6.55485 12.2597 5.54068C11.9864 5.26731 11.9864 4.8241 12.2597 4.55073ZM10.2798 6.53063C10.5532 6.25726 10.9964 6.25726 11.2698 6.53063C11.6379 6.89874 11.9383 7.33532 12.1502 7.82022C12.3754 8.33566 12.4999 8.90444 12.4999 9.50048C12.4999 10.6601 12.0291 11.711 11.2698 12.4703C10.9964 12.7437 10.5532 12.7437 10.2798 12.4703C10.0065 12.197 10.0065 11.7537 10.2798 11.4804C10.7873 10.9729 11.0999 10.2739 11.0999 9.50048C11.0999 9.10097 11.0167 8.72274 10.8673 8.38074C10.7264 8.05822 10.5261 7.7668 10.2798 7.52058C10.0065 7.24721 10.0065 6.804 10.2798 6.53063Z" fill="#A3A3A3"/>
</svg>
