<svg width="23" height="22" viewBox="0 0 23 22" fill="none" xmlns="http://www.w3.org/2000/svg">
<path d="M6.8305 4.15894C6.747 4.10943 6.65188 4.0829 6.5548 4.08205C6.45773 4.0812 6.36216 4.10607 6.27781 4.15411C6.19345 4.20215 6.12331 4.27167 6.07452 4.35559C6.02573 4.43951 6.00002 4.53486 6 4.63194V17.3681C6.00002 17.4652 6.02573 17.5605 6.07452 17.6444C6.12331 17.7284 6.19345 17.7979 6.27781 17.8459C6.36216 17.894 6.45773 17.9188 6.5548 17.918C6.65188 17.9171 6.747 17.8906 6.8305 17.8411L17.5766 11.473C17.6587 11.4243 17.7266 11.3551 17.7739 11.2722C17.8211 11.1892 17.8459 11.0955 17.8459 11C17.8459 10.9046 17.8211 10.8108 17.7739 10.7279C17.7266 10.6449 17.6587 10.5757 17.5766 10.527L6.8305 4.15894Z" fill="#FAFAFA" stroke="#FAFAFA" stroke-width="1.25" stroke-linecap="round" stroke-linejoin="round"/>
</svg>
