<svg width="26" height="26" viewBox="0 0 26 26" fill="none" xmlns="http://www.w3.org/2000/svg">
<path fill-rule="evenodd" clip-rule="evenodd" d="M4.67714 4.67714C5.24665 4.10762 6.17002 4.10762 6.73953 4.67714L13 10.9376L19.2605 4.67714C19.83 4.10762 20.7533 4.10762 21.3229 4.67714C21.8924 5.24665 21.8924 6.17002 21.3229 6.73953L15.0624 13L21.3229 19.2605C21.8924 19.83 21.8924 20.7533 21.3229 21.3229C20.7533 21.8924 19.83 21.8924 19.2605 21.3229L13 15.0624L6.73953 21.3229C6.17002 21.8924 5.24665 21.8924 4.67714 21.3229C4.10762 20.7533 4.10762 19.83 4.67714 19.2605L10.9376 13L4.67714 6.73953C4.10762 6.17002 4.10762 5.24665 4.67714 4.67714Z" fill="#FF8B67"/>
</svg>
